<mxfile host="app.diagrams.net" modified="2024-01-19T16:14:39.196Z" agent="Mozilla/5.0 (X11; Linux x86_64) AppleWebKit/537.36 (KHTML, like Gecko) Chrome/120.0.0.0 Safari/537.36" etag="zs9yOm4uUxSc6w1Koh1W" version="22.1.21" type="device">
  <diagram id="-6Jx9P7wOdj2TAW2RSRA" name="Page-1">
    <mxGraphModel dx="1434" dy="768" grid="1" gridSize="10" guides="1" tooltips="1" connect="1" arrows="1" fold="1" page="1" pageScale="1" pageWidth="850" pageHeight="1100" math="0" shadow="0">
      <root>
        <mxCell id="0" />
        <mxCell id="1" parent="0" />
        <mxCell id="p5qSIvq7oF1EzmBDYESA-54" value="USER" style="rounded=1;arcSize=10;whiteSpace=wrap;html=1;align=center;" parent="1" vertex="1">
          <mxGeometry x="375" y="830" width="100" height="40" as="geometry" />
        </mxCell>
        <mxCell id="p5qSIvq7oF1EzmBDYESA-56" value="Username" style="ellipse;whiteSpace=wrap;html=1;align=center;" parent="1" vertex="1">
          <mxGeometry x="210" y="800" width="100" height="40" as="geometry" />
        </mxCell>
        <mxCell id="p5qSIvq7oF1EzmBDYESA-58" value="Password" style="ellipse;whiteSpace=wrap;html=1;align=center;" parent="1" vertex="1">
          <mxGeometry x="180" y="850" width="100" height="40" as="geometry" />
        </mxCell>
        <mxCell id="p5qSIvq7oF1EzmBDYESA-60" value="Name" style="ellipse;whiteSpace=wrap;html=1;align=center;" parent="1" vertex="1">
          <mxGeometry x="200" y="900" width="100" height="40" as="geometry" />
        </mxCell>
        <mxCell id="p5qSIvq7oF1EzmBDYESA-61" value="BirthDate" style="ellipse;whiteSpace=wrap;html=1;align=center;" parent="1" vertex="1">
          <mxGeometry x="270" y="940" width="100" height="40" as="geometry" />
        </mxCell>
        <mxCell id="p5qSIvq7oF1EzmBDYESA-62" value="Address" style="ellipse;whiteSpace=wrap;html=1;align=center;" parent="1" vertex="1">
          <mxGeometry x="320" y="980" width="100" height="40" as="geometry" />
        </mxCell>
        <mxCell id="p5qSIvq7oF1EzmBDYESA-64" value="Credit_Card" style="ellipse;whiteSpace=wrap;html=1;align=center;" parent="1" vertex="1">
          <mxGeometry x="470" y="900" width="100" height="40" as="geometry" />
        </mxCell>
        <mxCell id="p5qSIvq7oF1EzmBDYESA-67" value="RENTAL" style="whiteSpace=wrap;html=1;align=center;" parent="1" vertex="1">
          <mxGeometry x="820" y="830" width="100" height="40" as="geometry" />
        </mxCell>
        <mxCell id="p5qSIvq7oF1EzmBDYESA-73" value="Rental_Date" style="ellipse;whiteSpace=wrap;html=1;align=center;" parent="1" vertex="1">
          <mxGeometry x="900" y="1010" width="100" height="40" as="geometry" />
        </mxCell>
        <mxCell id="p5qSIvq7oF1EzmBDYESA-74" value="Duration" style="ellipse;whiteSpace=wrap;html=1;align=center;" parent="1" vertex="1">
          <mxGeometry x="1050" y="970" width="100" height="40" as="geometry" />
        </mxCell>
        <mxCell id="p5qSIvq7oF1EzmBDYESA-75" value="Daily_Cost" style="ellipse;whiteSpace=wrap;html=1;align=center;" parent="1" vertex="1">
          <mxGeometry x="1020" y="910" width="100" height="40" as="geometry" />
        </mxCell>
        <mxCell id="p5qSIvq7oF1EzmBDYESA-76" value="Total_Cost" style="ellipse;whiteSpace=wrap;html=1;align=center;" parent="1" vertex="1">
          <mxGeometry x="940" y="960" width="100" height="40" as="geometry" />
        </mxCell>
        <mxCell id="p5qSIvq7oF1EzmBDYESA-77" value="Is_Returned" style="ellipse;whiteSpace=wrap;html=1;align=center;" parent="1" vertex="1">
          <mxGeometry x="1090" y="860" width="100" height="40" as="geometry" />
        </mxCell>
        <mxCell id="p5qSIvq7oF1EzmBDYESA-78" value="Has_Insurance" style="ellipse;whiteSpace=wrap;html=1;align=center;" parent="1" vertex="1">
          <mxGeometry x="1120" y="810" width="100" height="40" as="geometry" />
        </mxCell>
        <mxCell id="p5qSIvq7oF1EzmBDYESA-79" value="Maintance" style="whiteSpace=wrap;html=1;align=center;" parent="1" vertex="1">
          <mxGeometry x="1260" y="580" width="100" height="40" as="geometry" />
        </mxCell>
        <mxCell id="p5qSIvq7oF1EzmBDYESA-80" value="Maintenance_ID" style="ellipse;whiteSpace=wrap;html=1;align=center;fontStyle=4;" parent="1" vertex="1">
          <mxGeometry x="1240" y="480" width="100" height="40" as="geometry" />
        </mxCell>
        <mxCell id="p5qSIvq7oF1EzmBDYESA-82" value="Start_Date" style="ellipse;whiteSpace=wrap;html=1;align=center;" parent="1" vertex="1">
          <mxGeometry x="1470" y="540" width="100" height="40" as="geometry" />
        </mxCell>
        <mxCell id="p5qSIvq7oF1EzmBDYESA-83" value="End_Date" style="ellipse;whiteSpace=wrap;html=1;align=center;" parent="1" vertex="1">
          <mxGeometry x="1490" y="590" width="100" height="40" as="geometry" />
        </mxCell>
        <mxCell id="p5qSIvq7oF1EzmBDYESA-84" value="Maintenace_Type" style="ellipse;whiteSpace=wrap;html=1;align=center;" parent="1" vertex="1">
          <mxGeometry x="1480" y="640" width="100" height="40" as="geometry" />
        </mxCell>
        <mxCell id="p5qSIvq7oF1EzmBDYESA-85" value="Cost" style="ellipse;whiteSpace=wrap;html=1;align=center;" parent="1" vertex="1">
          <mxGeometry x="1450" y="490" width="100" height="40" as="geometry" />
        </mxCell>
        <mxCell id="p5qSIvq7oF1EzmBDYESA-86" value="Status" style="ellipse;whiteSpace=wrap;html=1;align=center;" parent="1" vertex="1">
          <mxGeometry x="1450" y="690" width="100" height="40" as="geometry" />
        </mxCell>
        <mxCell id="p5qSIvq7oF1EzmBDYESA-88" value="VEHICLE" style="whiteSpace=wrap;html=1;align=center;" parent="1" vertex="1">
          <mxGeometry x="820" y="575" width="100" height="40" as="geometry" />
        </mxCell>
        <mxCell id="p5qSIvq7oF1EzmBDYESA-89" value="License_Plate" style="ellipse;whiteSpace=wrap;html=1;align=center;fontStyle=4;" parent="1" vertex="1">
          <mxGeometry x="660" y="505" width="100" height="40" as="geometry" />
        </mxCell>
        <mxCell id="p5qSIvq7oF1EzmBDYESA-90" value="Subtype_Name" style="ellipse;whiteSpace=wrap;html=1;align=center;" parent="1" vertex="1">
          <mxGeometry x="980" y="475" width="100" height="40" as="geometry" />
        </mxCell>
        <mxCell id="p5qSIvq7oF1EzmBDYESA-91" value="is_Rented" style="ellipse;whiteSpace=wrap;html=1;align=center;" parent="1" vertex="1">
          <mxGeometry x="1020" y="425" width="100" height="40" as="geometry" />
        </mxCell>
        <mxCell id="p5qSIvq7oF1EzmBDYESA-92" value="Is_Damaged" style="ellipse;whiteSpace=wrap;html=1;align=center;" parent="1" vertex="1">
          <mxGeometry x="1050" y="375" width="100" height="40" as="geometry" />
        </mxCell>
        <mxCell id="p5qSIvq7oF1EzmBDYESA-93" value="Daily_Rental_Cost" style="ellipse;whiteSpace=wrap;html=1;align=center;" parent="1" vertex="1">
          <mxGeometry x="1010" y="265" width="100" height="40" as="geometry" />
        </mxCell>
        <mxCell id="p5qSIvq7oF1EzmBDYESA-94" value="Total_Days" style="ellipse;whiteSpace=wrap;html=1;align=center;" parent="1" vertex="1">
          <mxGeometry x="980" y="225" width="100" height="40" as="geometry" />
        </mxCell>
        <mxCell id="p5qSIvq7oF1EzmBDYESA-95" value="Rented_Count" style="ellipse;whiteSpace=wrap;html=1;align=center;" parent="1" vertex="1">
          <mxGeometry x="910" y="185" width="100" height="40" as="geometry" />
        </mxCell>
        <mxCell id="p5qSIvq7oF1EzmBDYESA-96" value="Range_Km" style="ellipse;whiteSpace=wrap;html=1;align=center;" parent="1" vertex="1">
          <mxGeometry x="850" y="225" width="100" height="40" as="geometry" />
        </mxCell>
        <mxCell id="p5qSIvq7oF1EzmBDYESA-98" value="Type" style="ellipse;whiteSpace=wrap;html=1;align=center;" parent="1" vertex="1">
          <mxGeometry x="750" y="305" width="100" height="40" as="geometry" />
        </mxCell>
        <mxCell id="p5qSIvq7oF1EzmBDYESA-99" value="Color" style="ellipse;whiteSpace=wrap;html=1;align=center;" parent="1" vertex="1">
          <mxGeometry x="720" y="355" width="100" height="40" as="geometry" />
        </mxCell>
        <mxCell id="p5qSIvq7oF1EzmBDYESA-100" value="Model" style="ellipse;whiteSpace=wrap;html=1;align=center;" parent="1" vertex="1">
          <mxGeometry x="690" y="405" width="100" height="40" as="geometry" />
        </mxCell>
        <mxCell id="p5qSIvq7oF1EzmBDYESA-101" value="Brand" style="ellipse;whiteSpace=wrap;html=1;align=center;" parent="1" vertex="1">
          <mxGeometry x="670" y="455" width="100" height="40" as="geometry" />
        </mxCell>
        <mxCell id="p5qSIvq7oF1EzmBDYESA-105" value="Daily_Insurance_COST" style="ellipse;whiteSpace=wrap;html=1;align=center;" parent="1" vertex="1">
          <mxGeometry x="1035" y="305" width="130" height="60" as="geometry" />
        </mxCell>
        <mxCell id="p5qSIvq7oF1EzmBDYESA-107" value="SubType_Name" style="ellipse;whiteSpace=wrap;html=1;align=center;fontStyle=4;" parent="1" vertex="1">
          <mxGeometry x="350" y="515" width="100" height="40" as="geometry" />
        </mxCell>
        <mxCell id="p5qSIvq7oF1EzmBDYESA-108" value="Capacity" style="ellipse;whiteSpace=wrap;html=1;align=center;" parent="1" vertex="1">
          <mxGeometry x="460" y="475" width="100" height="40" as="geometry" />
        </mxCell>
        <mxCell id="p5qSIvq7oF1EzmBDYESA-109" value="" style="endArrow=none;html=1;rounded=0;exitX=1;exitY=0.5;exitDx=0;exitDy=0;entryX=0;entryY=0;entryDx=0;entryDy=0;" parent="1" target="p5qSIvq7oF1EzmBDYESA-54" edge="1">
          <mxGeometry relative="1" as="geometry">
            <mxPoint x="350.000000000005" y="770" as="sourcePoint" />
            <mxPoint x="540" y="760" as="targetPoint" />
          </mxGeometry>
        </mxCell>
        <mxCell id="p5qSIvq7oF1EzmBDYESA-111" value="" style="endArrow=none;html=1;rounded=0;exitX=1;exitY=0.5;exitDx=0;exitDy=0;entryX=0;entryY=0.5;entryDx=0;entryDy=0;" parent="1" source="p5qSIvq7oF1EzmBDYESA-56" target="p5qSIvq7oF1EzmBDYESA-54" edge="1">
          <mxGeometry relative="1" as="geometry">
            <mxPoint x="320" y="820" as="sourcePoint" />
            <mxPoint x="370" y="850" as="targetPoint" />
          </mxGeometry>
        </mxCell>
        <mxCell id="p5qSIvq7oF1EzmBDYESA-112" value="" style="endArrow=none;html=1;rounded=0;exitX=1;exitY=0.5;exitDx=0;exitDy=0;entryX=0;entryY=0.75;entryDx=0;entryDy=0;" parent="1" source="p5qSIvq7oF1EzmBDYESA-58" target="p5qSIvq7oF1EzmBDYESA-54" edge="1">
          <mxGeometry relative="1" as="geometry">
            <mxPoint x="320" y="850" as="sourcePoint" />
            <mxPoint x="370" y="860" as="targetPoint" />
          </mxGeometry>
        </mxCell>
        <mxCell id="p5qSIvq7oF1EzmBDYESA-113" value="" style="endArrow=none;html=1;rounded=0;exitX=1.003;exitY=0.392;exitDx=0;exitDy=0;entryX=0;entryY=1;entryDx=0;entryDy=0;exitPerimeter=0;" parent="1" source="p5qSIvq7oF1EzmBDYESA-60" target="p5qSIvq7oF1EzmBDYESA-54" edge="1">
          <mxGeometry relative="1" as="geometry">
            <mxPoint x="350" y="870" as="sourcePoint" />
            <mxPoint x="375" y="930" as="targetPoint" />
          </mxGeometry>
        </mxCell>
        <mxCell id="p5qSIvq7oF1EzmBDYESA-114" value="" style="endArrow=none;html=1;rounded=0;exitX=0.183;exitY=1.067;exitDx=0;exitDy=0;entryX=0.793;entryY=0.117;entryDx=0;entryDy=0;entryPerimeter=0;exitPerimeter=0;" parent="1" source="p5qSIvq7oF1EzmBDYESA-54" target="p5qSIvq7oF1EzmBDYESA-61" edge="1">
          <mxGeometry relative="1" as="geometry">
            <mxPoint x="375" y="880" as="sourcePoint" />
            <mxPoint x="400" y="940" as="targetPoint" />
          </mxGeometry>
        </mxCell>
        <mxCell id="p5qSIvq7oF1EzmBDYESA-115" value="" style="endArrow=none;html=1;rounded=0;exitX=0.343;exitY=0.975;exitDx=0;exitDy=0;exitPerimeter=0;" parent="1" source="p5qSIvq7oF1EzmBDYESA-54" target="p5qSIvq7oF1EzmBDYESA-62" edge="1">
          <mxGeometry relative="1" as="geometry">
            <mxPoint x="413" y="880" as="sourcePoint" />
            <mxPoint x="438" y="940" as="targetPoint" />
          </mxGeometry>
        </mxCell>
        <mxCell id="p5qSIvq7oF1EzmBDYESA-117" value="" style="endArrow=none;html=1;rounded=0;exitX=0.653;exitY=1.075;exitDx=0;exitDy=0;exitPerimeter=0;" parent="1" source="p5qSIvq7oF1EzmBDYESA-54" target="p5qSIvq7oF1EzmBDYESA-64" edge="1">
          <mxGeometry relative="1" as="geometry">
            <mxPoint x="420" y="840" as="sourcePoint" />
            <mxPoint x="445" y="900" as="targetPoint" />
          </mxGeometry>
        </mxCell>
        <mxCell id="p5qSIvq7oF1EzmBDYESA-118" value="" style="endArrow=none;html=1;rounded=0;exitX=0.5;exitY=1;exitDx=0;exitDy=0;" parent="1" source="p5qSIvq7oF1EzmBDYESA-107" target="WnXBg3E58veAsp_ueqDW-17" edge="1">
          <mxGeometry relative="1" as="geometry">
            <mxPoint x="377.5" y="575" as="sourcePoint" />
            <mxPoint x="440" y="600" as="targetPoint" />
          </mxGeometry>
        </mxCell>
        <mxCell id="p5qSIvq7oF1EzmBDYESA-119" value="" style="endArrow=none;html=1;rounded=0;exitX=0.603;exitY=1.017;exitDx=0;exitDy=0;entryX=0.646;entryY=-0.03;entryDx=0;entryDy=0;exitPerimeter=0;entryPerimeter=0;" parent="1" source="p5qSIvq7oF1EzmBDYESA-108" target="WnXBg3E58veAsp_ueqDW-17" edge="1">
          <mxGeometry relative="1" as="geometry">
            <mxPoint x="580" y="545" as="sourcePoint" />
            <mxPoint x="494.29999999999995" y="579" as="targetPoint" />
          </mxGeometry>
        </mxCell>
        <mxCell id="p5qSIvq7oF1EzmBDYESA-120" value="" style="endArrow=none;html=1;rounded=0;exitX=0.737;exitY=1.017;exitDx=0;exitDy=0;entryX=-0.013;entryY=0.108;entryDx=0;entryDy=0;exitPerimeter=0;entryPerimeter=0;" parent="1" source="p5qSIvq7oF1EzmBDYESA-89" target="p5qSIvq7oF1EzmBDYESA-88" edge="1">
          <mxGeometry relative="1" as="geometry">
            <mxPoint x="735" y="545" as="sourcePoint" />
            <mxPoint x="760" y="605" as="targetPoint" />
          </mxGeometry>
        </mxCell>
        <mxCell id="p5qSIvq7oF1EzmBDYESA-121" value="" style="endArrow=none;html=1;rounded=0;exitX=0.977;exitY=0.7;exitDx=0;exitDy=0;entryX=0.4;entryY=0;entryDx=0;entryDy=0;exitPerimeter=0;entryPerimeter=0;" parent="1" source="p5qSIvq7oF1EzmBDYESA-100" target="p5qSIvq7oF1EzmBDYESA-88" edge="1">
          <mxGeometry relative="1" as="geometry">
            <mxPoint x="735" y="595" as="sourcePoint" />
            <mxPoint x="760" y="655" as="targetPoint" />
          </mxGeometry>
        </mxCell>
        <mxCell id="p5qSIvq7oF1EzmBDYESA-122" value="" style="endArrow=none;html=1;rounded=0;exitX=0.99;exitY=0.633;exitDx=0;exitDy=0;entryX=0.25;entryY=0;entryDx=0;entryDy=0;exitPerimeter=0;" parent="1" source="p5qSIvq7oF1EzmBDYESA-101" target="p5qSIvq7oF1EzmBDYESA-88" edge="1">
          <mxGeometry relative="1" as="geometry">
            <mxPoint x="745" y="605" as="sourcePoint" />
            <mxPoint x="770" y="665" as="targetPoint" />
          </mxGeometry>
        </mxCell>
        <mxCell id="p5qSIvq7oF1EzmBDYESA-123" value="" style="endArrow=none;html=1;rounded=0;exitX=1;exitY=1;exitDx=0;exitDy=0;entryX=0.457;entryY=0;entryDx=0;entryDy=0;entryPerimeter=0;" parent="1" source="p5qSIvq7oF1EzmBDYESA-99" target="p5qSIvq7oF1EzmBDYESA-88" edge="1">
          <mxGeometry relative="1" as="geometry">
            <mxPoint x="755" y="615" as="sourcePoint" />
            <mxPoint x="780" y="675" as="targetPoint" />
          </mxGeometry>
        </mxCell>
        <mxCell id="p5qSIvq7oF1EzmBDYESA-124" value="" style="endArrow=none;html=1;rounded=0;exitX=1;exitY=1;exitDx=0;exitDy=0;entryX=0.5;entryY=0;entryDx=0;entryDy=0;" parent="1" source="p5qSIvq7oF1EzmBDYESA-98" target="p5qSIvq7oF1EzmBDYESA-88" edge="1">
          <mxGeometry relative="1" as="geometry">
            <mxPoint x="765" y="625" as="sourcePoint" />
            <mxPoint x="790" y="685" as="targetPoint" />
          </mxGeometry>
        </mxCell>
        <mxCell id="p5qSIvq7oF1EzmBDYESA-126" value="" style="endArrow=none;html=1;rounded=0;exitX=0.7;exitY=1;exitDx=0;exitDy=0;entryX=0.57;entryY=0;entryDx=0;entryDy=0;exitPerimeter=0;entryPerimeter=0;" parent="1" source="p5qSIvq7oF1EzmBDYESA-96" target="p5qSIvq7oF1EzmBDYESA-88" edge="1">
          <mxGeometry relative="1" as="geometry">
            <mxPoint x="785" y="645" as="sourcePoint" />
            <mxPoint x="810" y="705" as="targetPoint" />
          </mxGeometry>
        </mxCell>
        <mxCell id="p5qSIvq7oF1EzmBDYESA-127" value="" style="endArrow=none;html=1;rounded=0;exitX=0.5;exitY=1;exitDx=0;exitDy=0;entryX=0.6;entryY=0;entryDx=0;entryDy=0;entryPerimeter=0;" parent="1" source="p5qSIvq7oF1EzmBDYESA-95" target="p5qSIvq7oF1EzmBDYESA-88" edge="1">
          <mxGeometry relative="1" as="geometry">
            <mxPoint x="795" y="655" as="sourcePoint" />
            <mxPoint x="820" y="715" as="targetPoint" />
          </mxGeometry>
        </mxCell>
        <mxCell id="p5qSIvq7oF1EzmBDYESA-128" value="" style="endArrow=none;html=1;rounded=0;exitX=0.06;exitY=0.8;exitDx=0;exitDy=0;entryX=0.663;entryY=0;entryDx=0;entryDy=0;exitPerimeter=0;entryPerimeter=0;" parent="1" source="p5qSIvq7oF1EzmBDYESA-94" target="p5qSIvq7oF1EzmBDYESA-88" edge="1">
          <mxGeometry relative="1" as="geometry">
            <mxPoint x="805" y="665" as="sourcePoint" />
            <mxPoint x="830" y="725" as="targetPoint" />
          </mxGeometry>
        </mxCell>
        <mxCell id="p5qSIvq7oF1EzmBDYESA-129" value="" style="endArrow=none;html=1;rounded=0;exitX=0;exitY=0.5;exitDx=0;exitDy=0;entryX=0.71;entryY=0.008;entryDx=0;entryDy=0;entryPerimeter=0;" parent="1" source="p5qSIvq7oF1EzmBDYESA-93" target="p5qSIvq7oF1EzmBDYESA-88" edge="1">
          <mxGeometry relative="1" as="geometry">
            <mxPoint x="815" y="675" as="sourcePoint" />
            <mxPoint x="840" y="735" as="targetPoint" />
          </mxGeometry>
        </mxCell>
        <mxCell id="p5qSIvq7oF1EzmBDYESA-130" value="" style="endArrow=none;html=1;rounded=0;exitX=0.01;exitY=0.617;exitDx=0;exitDy=0;exitPerimeter=0;" parent="1" source="p5qSIvq7oF1EzmBDYESA-105" edge="1">
          <mxGeometry relative="1" as="geometry">
            <mxPoint x="825" y="685" as="sourcePoint" />
            <mxPoint x="890" y="575" as="targetPoint" />
          </mxGeometry>
        </mxCell>
        <mxCell id="p5qSIvq7oF1EzmBDYESA-131" value="" style="endArrow=none;html=1;rounded=0;exitX=0;exitY=0.5;exitDx=0;exitDy=0;" parent="1" source="p5qSIvq7oF1EzmBDYESA-92" edge="1">
          <mxGeometry relative="1" as="geometry">
            <mxPoint x="835" y="695" as="sourcePoint" />
            <mxPoint x="890" y="575" as="targetPoint" />
          </mxGeometry>
        </mxCell>
        <mxCell id="p5qSIvq7oF1EzmBDYESA-132" value="" style="endArrow=none;html=1;rounded=0;exitX=0;exitY=0.5;exitDx=0;exitDy=0;entryX=0.827;entryY=-0.042;entryDx=0;entryDy=0;entryPerimeter=0;" parent="1" source="p5qSIvq7oF1EzmBDYESA-91" target="p5qSIvq7oF1EzmBDYESA-88" edge="1">
          <mxGeometry relative="1" as="geometry">
            <mxPoint x="845" y="705" as="sourcePoint" />
            <mxPoint x="870" y="765" as="targetPoint" />
          </mxGeometry>
        </mxCell>
        <mxCell id="p5qSIvq7oF1EzmBDYESA-133" value="" style="endArrow=none;html=1;rounded=0;exitX=0.05;exitY=0.783;exitDx=0;exitDy=0;entryX=0.899;entryY=0.039;entryDx=0;entryDy=0;exitPerimeter=0;entryPerimeter=0;" parent="1" source="p5qSIvq7oF1EzmBDYESA-90" target="p5qSIvq7oF1EzmBDYESA-88" edge="1">
          <mxGeometry relative="1" as="geometry">
            <mxPoint x="855" y="715" as="sourcePoint" />
            <mxPoint x="880" y="775" as="targetPoint" />
          </mxGeometry>
        </mxCell>
        <mxCell id="p5qSIvq7oF1EzmBDYESA-134" value="" style="endArrow=none;html=1;rounded=0;exitX=0;exitY=0.5;exitDx=0;exitDy=0;entryX=1;entryY=0.5;entryDx=0;entryDy=0;" parent="1" source="p5qSIvq7oF1EzmBDYESA-83" target="p5qSIvq7oF1EzmBDYESA-79" edge="1">
          <mxGeometry relative="1" as="geometry">
            <mxPoint x="1175" y="600" as="sourcePoint" />
            <mxPoint x="1200" y="660" as="targetPoint" />
          </mxGeometry>
        </mxCell>
        <mxCell id="p5qSIvq7oF1EzmBDYESA-135" value="" style="endArrow=none;html=1;rounded=0;exitX=0;exitY=0.5;exitDx=0;exitDy=0;entryX=1;entryY=0.25;entryDx=0;entryDy=0;" parent="1" source="p5qSIvq7oF1EzmBDYESA-82" target="p5qSIvq7oF1EzmBDYESA-79" edge="1">
          <mxGeometry relative="1" as="geometry">
            <mxPoint x="1184.9999999999998" y="610" as="sourcePoint" />
            <mxPoint x="1209.9999999999998" y="670" as="targetPoint" />
          </mxGeometry>
        </mxCell>
        <mxCell id="p5qSIvq7oF1EzmBDYESA-136" value="" style="endArrow=none;html=1;rounded=0;entryX=1;entryY=0;entryDx=0;entryDy=0;exitX=0.03;exitY=0.75;exitDx=0;exitDy=0;exitPerimeter=0;" parent="1" source="p5qSIvq7oF1EzmBDYESA-85" target="p5qSIvq7oF1EzmBDYESA-79" edge="1">
          <mxGeometry relative="1" as="geometry">
            <mxPoint x="1195" y="620" as="sourcePoint" />
            <mxPoint x="1219.9999999999998" y="680" as="targetPoint" />
          </mxGeometry>
        </mxCell>
        <mxCell id="p5qSIvq7oF1EzmBDYESA-138" value="" style="endArrow=none;html=1;rounded=0;exitX=0.626;exitY=0.973;exitDx=0;exitDy=0;entryX=0.5;entryY=0;entryDx=0;entryDy=0;exitPerimeter=0;" parent="1" source="p5qSIvq7oF1EzmBDYESA-80" target="p5qSIvq7oF1EzmBDYESA-79" edge="1">
          <mxGeometry relative="1" as="geometry">
            <mxPoint x="1214.9999999999998" y="640" as="sourcePoint" />
            <mxPoint x="1239.9999999999998" y="700" as="targetPoint" />
          </mxGeometry>
        </mxCell>
        <mxCell id="p5qSIvq7oF1EzmBDYESA-139" value="" style="endArrow=none;html=1;rounded=0;exitX=-0.01;exitY=0.408;exitDx=0;exitDy=0;entryX=1;entryY=0.75;entryDx=0;entryDy=0;exitPerimeter=0;" parent="1" source="p5qSIvq7oF1EzmBDYESA-84" target="p5qSIvq7oF1EzmBDYESA-79" edge="1">
          <mxGeometry relative="1" as="geometry">
            <mxPoint x="1224.9999999999998" y="650" as="sourcePoint" />
            <mxPoint x="1249.9999999999998" y="710" as="targetPoint" />
          </mxGeometry>
        </mxCell>
        <mxCell id="p5qSIvq7oF1EzmBDYESA-140" value="" style="endArrow=none;html=1;rounded=0;exitX=0;exitY=0.5;exitDx=0;exitDy=0;entryX=1;entryY=1;entryDx=0;entryDy=0;" parent="1" source="p5qSIvq7oF1EzmBDYESA-86" target="p5qSIvq7oF1EzmBDYESA-79" edge="1">
          <mxGeometry relative="1" as="geometry">
            <mxPoint x="1234.9999999999998" y="660" as="sourcePoint" />
            <mxPoint x="1259.9999999999998" y="720" as="targetPoint" />
          </mxGeometry>
        </mxCell>
        <mxCell id="p5qSIvq7oF1EzmBDYESA-143" value="" style="endArrow=none;html=1;rounded=0;exitX=0.663;exitY=1.048;exitDx=0;exitDy=0;entryX=0.634;entryY=-0.046;entryDx=0;entryDy=0;entryPerimeter=0;exitPerimeter=0;" parent="1" source="p5qSIvq7oF1EzmBDYESA-67" edge="1">
          <mxGeometry relative="1" as="geometry">
            <mxPoint x="1024.9999999999998" y="710" as="sourcePoint" />
            <mxPoint x="883.4000000000001" y="968.1599999999999" as="targetPoint" />
          </mxGeometry>
        </mxCell>
        <mxCell id="p5qSIvq7oF1EzmBDYESA-144" value="" style="endArrow=none;html=1;rounded=0;exitX=0.75;exitY=1;exitDx=0;exitDy=0;entryX=0.388;entryY=-0.004;entryDx=0;entryDy=0;entryPerimeter=0;" parent="1" source="p5qSIvq7oF1EzmBDYESA-67" target="p5qSIvq7oF1EzmBDYESA-73" edge="1">
          <mxGeometry relative="1" as="geometry">
            <mxPoint x="1034.9999999999998" y="720" as="sourcePoint" />
            <mxPoint x="1059.9999999999998" y="780" as="targetPoint" />
          </mxGeometry>
        </mxCell>
        <mxCell id="p5qSIvq7oF1EzmBDYESA-145" value="" style="endArrow=none;html=1;rounded=0;exitX=0.909;exitY=1.017;exitDx=0;exitDy=0;entryX=0.438;entryY=0.027;entryDx=0;entryDy=0;entryPerimeter=0;exitPerimeter=0;" parent="1" source="p5qSIvq7oF1EzmBDYESA-67" target="p5qSIvq7oF1EzmBDYESA-76" edge="1">
          <mxGeometry relative="1" as="geometry">
            <mxPoint x="1044.9999999999998" y="730" as="sourcePoint" />
            <mxPoint x="1069.9999999999998" y="790" as="targetPoint" />
          </mxGeometry>
        </mxCell>
        <mxCell id="p5qSIvq7oF1EzmBDYESA-146" value="" style="endArrow=none;html=1;rounded=0;exitX=1;exitY=1;exitDx=0;exitDy=0;entryX=0;entryY=0;entryDx=0;entryDy=0;" parent="1" source="p5qSIvq7oF1EzmBDYESA-67" target="p5qSIvq7oF1EzmBDYESA-75" edge="1">
          <mxGeometry relative="1" as="geometry">
            <mxPoint x="1054.9999999999998" y="740" as="sourcePoint" />
            <mxPoint x="1080" y="800" as="targetPoint" />
          </mxGeometry>
        </mxCell>
        <mxCell id="p5qSIvq7oF1EzmBDYESA-147" value="" style="endArrow=none;html=1;rounded=0;exitX=1;exitY=0.75;exitDx=0;exitDy=0;entryX=0.047;entryY=0.267;entryDx=0;entryDy=0;entryPerimeter=0;" parent="1" source="p5qSIvq7oF1EzmBDYESA-67" target="p5qSIvq7oF1EzmBDYESA-77" edge="1">
          <mxGeometry relative="1" as="geometry">
            <mxPoint x="1064.9999999999998" y="750" as="sourcePoint" />
            <mxPoint x="1090" y="870" as="targetPoint" />
          </mxGeometry>
        </mxCell>
        <mxCell id="p5qSIvq7oF1EzmBDYESA-148" value="" style="endArrow=none;html=1;rounded=0;exitX=1;exitY=0.5;exitDx=0;exitDy=0;entryX=0;entryY=0.5;entryDx=0;entryDy=0;" parent="1" source="p5qSIvq7oF1EzmBDYESA-67" target="p5qSIvq7oF1EzmBDYESA-78" edge="1">
          <mxGeometry relative="1" as="geometry">
            <mxPoint x="1074.9999999999998" y="760" as="sourcePoint" />
            <mxPoint x="1099.9999999999998" y="820" as="targetPoint" />
          </mxGeometry>
        </mxCell>
        <mxCell id="p5qSIvq7oF1EzmBDYESA-150" value="" style="endArrow=none;html=1;rounded=0;exitX=1;exitY=1;exitDx=0;exitDy=0;entryX=0;entryY=0;entryDx=0;entryDy=0;" parent="1" source="p5qSIvq7oF1EzmBDYESA-67" target="p5qSIvq7oF1EzmBDYESA-74" edge="1">
          <mxGeometry relative="1" as="geometry">
            <mxPoint x="1094.9999999999998" y="780" as="sourcePoint" />
            <mxPoint x="1119.9999999999998" y="840" as="targetPoint" />
          </mxGeometry>
        </mxCell>
        <mxCell id="p5qSIvq7oF1EzmBDYESA-151" value="rented by" style="shape=rhombus;double=1;perimeter=rhombusPerimeter;whiteSpace=wrap;html=1;align=center;" parent="1" vertex="1">
          <mxGeometry x="560" y="820" width="120" height="60" as="geometry" />
        </mxCell>
        <mxCell id="p5qSIvq7oF1EzmBDYESA-152" value="Rents" style="shape=rhombus;double=1;perimeter=rhombusPerimeter;whiteSpace=wrap;html=1;align=center;" parent="1" vertex="1">
          <mxGeometry x="810" y="720" width="120" height="60" as="geometry" />
        </mxCell>
        <mxCell id="p5qSIvq7oF1EzmBDYESA-153" value="Requires" style="shape=rhombus;double=1;perimeter=rhombusPerimeter;whiteSpace=wrap;html=1;align=center;" parent="1" vertex="1">
          <mxGeometry x="1035" y="570" width="120" height="60" as="geometry" />
        </mxCell>
        <mxCell id="p5qSIvq7oF1EzmBDYESA-156" value="" style="endArrow=none;html=1;rounded=0;exitX=1;exitY=0.5;exitDx=0;exitDy=0;entryX=0;entryY=0.5;entryDx=0;entryDy=0;" parent="1" source="p5qSIvq7oF1EzmBDYESA-54" target="p5qSIvq7oF1EzmBDYESA-151" edge="1">
          <mxGeometry relative="1" as="geometry">
            <mxPoint x="490" y="770" as="sourcePoint" />
            <mxPoint x="650" y="770" as="targetPoint" />
          </mxGeometry>
        </mxCell>
        <mxCell id="p5qSIvq7oF1EzmBDYESA-157" value="0" style="resizable=0;html=1;align=left;verticalAlign=bottom;" parent="p5qSIvq7oF1EzmBDYESA-156" connectable="0" vertex="1">
          <mxGeometry x="-1" relative="1" as="geometry" />
        </mxCell>
        <mxCell id="p5qSIvq7oF1EzmBDYESA-158" value="N" style="resizable=0;html=1;align=right;verticalAlign=bottom;" parent="p5qSIvq7oF1EzmBDYESA-156" connectable="0" vertex="1">
          <mxGeometry x="1" relative="1" as="geometry" />
        </mxCell>
        <mxCell id="p5qSIvq7oF1EzmBDYESA-159" value="" style="endArrow=none;html=1;rounded=0;entryX=0;entryY=0.5;entryDx=0;entryDy=0;exitX=1;exitY=0.5;exitDx=0;exitDy=0;" parent="1" source="p5qSIvq7oF1EzmBDYESA-151" target="p5qSIvq7oF1EzmBDYESA-67" edge="1">
          <mxGeometry relative="1" as="geometry">
            <mxPoint x="540" y="780" as="sourcePoint" />
            <mxPoint x="700" y="780" as="targetPoint" />
          </mxGeometry>
        </mxCell>
        <mxCell id="p5qSIvq7oF1EzmBDYESA-160" value="1" style="resizable=0;html=1;align=left;verticalAlign=bottom;" parent="p5qSIvq7oF1EzmBDYESA-159" connectable="0" vertex="1">
          <mxGeometry x="-1" relative="1" as="geometry">
            <mxPoint x="-1" as="offset" />
          </mxGeometry>
        </mxCell>
        <mxCell id="p5qSIvq7oF1EzmBDYESA-161" value="N" style="resizable=0;html=1;align=right;verticalAlign=bottom;" parent="p5qSIvq7oF1EzmBDYESA-159" connectable="0" vertex="1">
          <mxGeometry x="1" relative="1" as="geometry" />
        </mxCell>
        <mxCell id="p5qSIvq7oF1EzmBDYESA-165" value="" style="endArrow=none;html=1;rounded=0;exitX=1;exitY=0.5;exitDx=0;exitDy=0;entryX=0;entryY=0.5;entryDx=0;entryDy=0;" parent="1" source="p5qSIvq7oF1EzmBDYESA-153" target="p5qSIvq7oF1EzmBDYESA-79" edge="1">
          <mxGeometry relative="1" as="geometry">
            <mxPoint x="1060" y="690" as="sourcePoint" />
            <mxPoint x="1220" y="690" as="targetPoint" />
          </mxGeometry>
        </mxCell>
        <mxCell id="p5qSIvq7oF1EzmBDYESA-166" value="1" style="resizable=0;html=1;align=left;verticalAlign=bottom;" parent="p5qSIvq7oF1EzmBDYESA-165" connectable="0" vertex="1">
          <mxGeometry x="-1" relative="1" as="geometry" />
        </mxCell>
        <mxCell id="p5qSIvq7oF1EzmBDYESA-167" value="N" style="resizable=0;html=1;align=right;verticalAlign=bottom;" parent="p5qSIvq7oF1EzmBDYESA-165" connectable="0" vertex="1">
          <mxGeometry x="1" relative="1" as="geometry" />
        </mxCell>
        <mxCell id="p5qSIvq7oF1EzmBDYESA-168" value="" style="endArrow=none;html=1;rounded=0;entryX=0.5;entryY=0;entryDx=0;entryDy=0;exitX=1;exitY=1;exitDx=0;exitDy=0;" parent="1" source="p5qSIvq7oF1EzmBDYESA-88" target="p5qSIvq7oF1EzmBDYESA-152" edge="1">
          <mxGeometry relative="1" as="geometry">
            <mxPoint x="860" y="680" as="sourcePoint" />
            <mxPoint x="1000" y="680" as="targetPoint" />
          </mxGeometry>
        </mxCell>
        <mxCell id="p5qSIvq7oF1EzmBDYESA-169" value="1" style="resizable=0;html=1;align=left;verticalAlign=bottom;" parent="p5qSIvq7oF1EzmBDYESA-168" connectable="0" vertex="1">
          <mxGeometry x="-1" relative="1" as="geometry" />
        </mxCell>
        <mxCell id="p5qSIvq7oF1EzmBDYESA-170" value="1" style="resizable=0;html=1;align=right;verticalAlign=bottom;" parent="p5qSIvq7oF1EzmBDYESA-168" connectable="0" vertex="1">
          <mxGeometry x="1" relative="1" as="geometry" />
        </mxCell>
        <mxCell id="p5qSIvq7oF1EzmBDYESA-171" value="" style="endArrow=none;html=1;rounded=0;entryX=0;entryY=0.5;entryDx=0;entryDy=0;exitX=1;exitY=0.5;exitDx=0;exitDy=0;" parent="1" source="p5qSIvq7oF1EzmBDYESA-88" target="p5qSIvq7oF1EzmBDYESA-153" edge="1">
          <mxGeometry relative="1" as="geometry">
            <mxPoint x="1190" y="760" as="sourcePoint" />
            <mxPoint x="1330" y="760" as="targetPoint" />
          </mxGeometry>
        </mxCell>
        <mxCell id="p5qSIvq7oF1EzmBDYESA-172" value="0" style="resizable=0;html=1;align=left;verticalAlign=bottom;" parent="p5qSIvq7oF1EzmBDYESA-171" connectable="0" vertex="1">
          <mxGeometry x="-1" relative="1" as="geometry" />
        </mxCell>
        <mxCell id="p5qSIvq7oF1EzmBDYESA-173" value="N" style="resizable=0;html=1;align=right;verticalAlign=bottom;" parent="p5qSIvq7oF1EzmBDYESA-171" connectable="0" vertex="1">
          <mxGeometry x="1" relative="1" as="geometry" />
        </mxCell>
        <mxCell id="p5qSIvq7oF1EzmBDYESA-174" value="" style="endArrow=none;html=1;rounded=0;exitX=1;exitY=0.5;exitDx=0;exitDy=0;entryX=0.5;entryY=0;entryDx=0;entryDy=0;" parent="1" source="p5qSIvq7oF1EzmBDYESA-152" target="p5qSIvq7oF1EzmBDYESA-67" edge="1">
          <mxGeometry relative="1" as="geometry">
            <mxPoint x="895" y="800" as="sourcePoint" />
            <mxPoint x="1035" y="800" as="targetPoint" />
          </mxGeometry>
        </mxCell>
        <mxCell id="p5qSIvq7oF1EzmBDYESA-175" value="1" style="resizable=0;html=1;align=left;verticalAlign=bottom;" parent="p5qSIvq7oF1EzmBDYESA-174" connectable="0" vertex="1">
          <mxGeometry x="-1" relative="1" as="geometry" />
        </mxCell>
        <mxCell id="p5qSIvq7oF1EzmBDYESA-176" value="0" style="resizable=0;html=1;align=right;verticalAlign=bottom;" parent="p5qSIvq7oF1EzmBDYESA-174" connectable="0" vertex="1">
          <mxGeometry x="1" relative="1" as="geometry" />
        </mxCell>
        <mxCell id="DwuAjLGXjT2HJxMnNHOD-1" value="" style="endArrow=none;html=1;rounded=0;entryX=0.385;entryY=1.051;entryDx=0;entryDy=0;entryPerimeter=0;" parent="1" target="p5qSIvq7oF1EzmBDYESA-67" edge="1">
          <mxGeometry width="50" height="50" relative="1" as="geometry">
            <mxPoint x="800" y="930" as="sourcePoint" />
            <mxPoint x="850" y="880" as="targetPoint" />
            <Array as="points" />
          </mxGeometry>
        </mxCell>
        <mxCell id="DwuAjLGXjT2HJxMnNHOD-2" value="new_carplate" style="ellipse;whiteSpace=wrap;html=1;align=center;" parent="1" vertex="1">
          <mxGeometry x="740" y="930" width="100" height="40" as="geometry" />
        </mxCell>
        <mxCell id="WnXBg3E58veAsp_ueqDW-3" value="Driving_licence" style="ellipse;whiteSpace=wrap;html=1;" parent="1" vertex="1">
          <mxGeometry x="280" y="720" width="90" height="60" as="geometry" />
        </mxCell>
        <mxCell id="WnXBg3E58veAsp_ueqDW-5" value="Driving_licence" style="ellipse;whiteSpace=wrap;html=1;" parent="1" vertex="1">
          <mxGeometry x="825" y="960" width="90" height="60" as="geometry" />
        </mxCell>
        <mxCell id="WnXBg3E58veAsp_ueqDW-7" value="rental_id" style="ellipse;whiteSpace=wrap;html=1;" parent="1" vertex="1">
          <mxGeometry x="680" y="895" width="100" height="50" as="geometry" />
        </mxCell>
        <mxCell id="WnXBg3E58veAsp_ueqDW-9" value="" style="endArrow=none;html=1;rounded=0;" parent="1" edge="1">
          <mxGeometry width="50" height="50" relative="1" as="geometry">
            <mxPoint x="770" y="920" as="sourcePoint" />
            <mxPoint x="820" y="870" as="targetPoint" />
          </mxGeometry>
        </mxCell>
        <mxCell id="WnXBg3E58veAsp_ueqDW-16" style="edgeStyle=orthogonalEdgeStyle;rounded=0;orthogonalLoop=1;jettySize=auto;html=1;exitX=1;exitY=0;exitDx=0;exitDy=0;exitPerimeter=0;entryX=0.5;entryY=1;entryDx=0;entryDy=0;" parent="1" source="WnXBg3E58veAsp_ueqDW-13" edge="1">
          <mxGeometry relative="1" as="geometry">
            <mxPoint x="490" y="620" as="targetPoint" />
          </mxGeometry>
        </mxCell>
        <mxCell id="WnXBg3E58veAsp_ueqDW-13" value="isa" style="strokeWidth=2;html=1;shape=mxgraph.flowchart.merge_or_storage;whiteSpace=wrap;direction=west;" parent="1" vertex="1">
          <mxGeometry x="620" y="605" width="95" height="60" as="geometry" />
        </mxCell>
        <mxCell id="WnXBg3E58veAsp_ueqDW-14" value="" style="endArrow=none;html=1;rounded=0;" parent="1" edge="1">
          <mxGeometry relative="1" as="geometry">
            <mxPoint x="670" y="604" as="sourcePoint" />
            <mxPoint x="820" y="603.82" as="targetPoint" />
          </mxGeometry>
        </mxCell>
        <mxCell id="WnXBg3E58veAsp_ueqDW-17" value="CaryType" style="whiteSpace=wrap;html=1;align=center;" parent="1" vertex="1">
          <mxGeometry x="420" y="590" width="100" height="40" as="geometry" />
        </mxCell>
        <mxCell id="Ogv2H2W9KaAU2h5wIIXL-1" value="User_id" style="ellipse;whiteSpace=wrap;html=1;align=center;fontStyle=4;" vertex="1" parent="1">
          <mxGeometry x="170" y="760" width="100" height="40" as="geometry" />
        </mxCell>
        <mxCell id="Ogv2H2W9KaAU2h5wIIXL-2" value="" style="endArrow=none;html=1;rounded=0;exitX=1;exitY=0.5;exitDx=0;exitDy=0;entryX=0;entryY=0.25;entryDx=0;entryDy=0;" edge="1" parent="1" source="Ogv2H2W9KaAU2h5wIIXL-1" target="p5qSIvq7oF1EzmBDYESA-54">
          <mxGeometry relative="1" as="geometry">
            <mxPoint x="520" y="810" as="sourcePoint" />
            <mxPoint x="680" y="810" as="targetPoint" />
          </mxGeometry>
        </mxCell>
      </root>
    </mxGraphModel>
  </diagram>
</mxfile>
